# xmcd CD database file
#
# Track frame offsets:
#	188
#	26363
#	44688
#	83700
#	103863
#	131138
#	134963
#	191063
#	223088
#	278438
#	324038
#
# Disc length: 4468 seconds
#
# Revision: 0
# Processed by: cddbd v1.5.2PL0 Copyright (c) Steve Scherf et al.
# Submitted via: CDex 1.70beta2
#
DISCID=a311720b
DTITLE=Dés László - Running Time
DYEAR=1990
DGENRE=Jazz
TTITLE0=Play in "A" Sound
TTITLE1=Julia's Smile
TTITLE2=Talisman
TTITLE3=Blonde's Dream
TTITLE4=From Daybreak to Morning
TTITLE5=Lullaby
TTITLE6=Out of Brasil
TTITLE7=Hommage a Gismonti
TTITLE8=Song for V.M.
TTITLE9=One String
TTITLE10=Aura
EXTD=YEAR: 1990
EXTT0=
EXTT1=
EXTT2=
EXTT3=
EXTT4=
EXTT5=
EXTT6=
EXTT7=
EXTT8=
EXTT9=
EXTT10=
PLAYORDER=
